<svg xmlns="http://www.w3.org/2000/svg" width="172" height="172" viewBox="0 0 172 172" fill="none"><g filter="url(#a)"><circle cx="86" cy="76" r="66" fill="#fff"/><path d="m104.433 90.286-8.388-8.388a15.494 15.494 0 0 0 3.106-9.322C99.151 63.987 92.164 57 83.576 57 74.987 57 68 63.987 68 72.576c0 8.588 6.987 15.575 15.576 15.575a15.494 15.494 0 0 0 9.322-3.106l8.388 8.388a2.228 2.228 0 0 0 3.147-3.147ZM72.45 72.576A11.125 11.125 0 1 1 83.576 83.7 11.138 11.138 0 0 1 72.45 72.576Z" fill="#CDA274"/></g><defs><filter id="a" x="0" y="0" width="172" height="172" filterUnits="userSpaceOnUse" color-interpolation-filters="sRGB"><feFlood flood-opacity="0" result="BackgroundImageFix"/><feColorMatrix in="SourceAlpha" values="0 0 0 0 0 0 0 0 0 0 0 0 0 0 0 0 0 0 127 0" result="hardAlpha"/><feOffset dy="10"/><feGaussianBlur stdDeviation="10"/><feComposite in2="hardAlpha" operator="out"/><feColorMatrix values="0 0 0 0 0.752941 0 0 0 0 0.752941 0 0 0 0 0.752941 0 0 0 0.25 0"/><feBlend in2="BackgroundImageFix" result="effect1_dropShadow_1418_52"/><feBlend in="SourceGraphic" in2="effect1_dropShadow_1418_52" result="shape"/></filter></defs></svg>