<svg width="31" height="30" viewBox="0 0 31 30" fill="none" xmlns="http://www.w3.org/2000/svg"><path stroke="#000" d="M13.416 5.854c.599-1.843 3.206-1.843 3.805 0l1.016 3.129a2 2 0 0 0 1.902 1.382h3.29c1.937 0 2.743 2.479 1.175 3.618l-2.661 1.933a2 2 0 0 0-.727 2.236l1.017 3.13c.599 1.842-1.51 3.374-3.078 2.235l-2.661-1.933a2 2 0 0 0-2.351 0l-2.662 1.933c-1.567 1.139-3.676-.393-3.077-2.236l1.016-3.128a2 2 0 0 0-.726-2.237l-2.662-1.933c-1.567-1.139-.762-3.618 1.176-3.618h3.29A2 2 0 0 0 12.4 8.983l1.016-3.129Z" fill="#FFF"/></svg>