<svg width="74" height="56" viewBox="0 0 74 56" fill="none" xmlns="http://www.w3.org/2000/svg"><path d="M58.252.6c4.4 0 8 1.467 10.8 4.4 2.666 2.933 4 6.867 4 11.8 0 8.667-2.867 16.2-8.6 22.6-5.867 6.4-12.867 11.667-21 15.8l-2-3.4c3.333-2.133 6.466-4.867 9.4-8.2 2.8-3.333 5-6.933 6.6-10.8l-5.6-4.2c-2.267-1.467-4.134-3.467-5.6-6-1.467-2.4-2.2-4.733-2.2-7 0-4.267 1.333-7.867 4-10.8C50.585 2 53.985.6 58.252.6Zm-41.2 0c4.4 0 8 1.467 10.8 4.4 2.666 2.933 4 6.867 4 11.8 0 8.667-2.867 16.2-8.6 22.6-5.867 6.4-12.867 11.667-21 15.8l-2-3.4c3.333-2.133 6.466-4.867 9.4-8.2 2.8-3.333 5-6.933 6.6-10.8l-5.6-4.2c-2.267-1.467-4.134-3.467-5.6-6-1.467-2.4-2.2-4.733-2.2-7 0-4.267 1.333-7.867 4-10.8C9.385 2 12.785.6 17.052.6Z" fill="#CDA274"/></svg>